<svg width="64" height="64" viewBox="0 0 64 64" fill="none" xmlns="http://www.w3.org/2000/svg">
<circle cx="32" cy="32" r="32" fill="url(#paint0_linear_10399_54967)"/>
<path d="M32.0005 11.8188C28.009 11.8188 24.1072 13.0024 20.7884 15.22C17.4697 17.4375 14.883 20.5894 13.3555 24.277C11.8281 27.9646 11.4284 32.0224 12.2071 35.9371C12.9858 39.8519 14.9079 43.4478 17.7303 46.2702C20.5526 49.0926 24.1486 51.0146 28.0633 51.7933C31.9781 52.572 36.0358 52.1724 39.7234 50.6449C43.4111 49.1174 46.5629 46.5308 48.7805 43.212C50.998 39.8932 52.1816 35.9914 52.1816 32C52.1816 26.6476 50.0554 21.5145 46.2707 17.7298C42.486 13.9451 37.3528 11.8188 32.0005 11.8188ZM47.5147 29.7548H40.5522C40.2719 25.2445 38.9137 20.8671 36.5917 16.9903C39.4335 17.8665 41.9684 19.531 43.9019 21.7905C45.8355 24.05 47.0882 26.8117 47.5147 29.7548ZM32.0005 45.8493C29.6168 42.4224 28.2126 38.4105 27.939 34.2451H36.0619C35.7883 38.4105 34.3842 42.4224 32.0005 45.8493ZM27.939 29.7548C28.2126 25.5894 29.6168 21.5775 32.0005 18.1507C34.3842 21.5775 35.7883 25.5894 36.0619 29.7548H27.939ZM27.4093 16.9903C25.0873 20.8671 23.7291 25.2445 23.4487 29.7548H16.4862C16.9127 26.8117 18.1655 24.05 20.099 21.7905C22.0325 19.531 24.5674 17.8665 27.4093 16.9903ZM16.4862 34.2451H23.4487C23.7091 38.7987 25.0679 43.2216 27.4093 47.1358C24.55 46.2504 22.0031 44.5668 20.0681 42.2832C18.133 39.9996 16.8904 37.2109 16.4862 34.2451ZM36.6674 47.0097C38.9894 43.1328 40.3475 38.7555 40.6279 34.2451H47.5904C47.1803 37.2201 45.9264 40.0153 43.9772 42.2998C42.0279 44.5843 39.465 46.2625 36.5917 47.1358L36.6674 47.0097Z" fill="white"/>
<defs>
<linearGradient id="paint0_linear_10399_54967" x1="34.6288" y1="32" x2="56.451" y2="11.3382" gradientUnits="userSpaceOnUse">
<stop stop-color="#4187FF"/>
<stop offset="1" stop-color="#836AFF"/>
</linearGradient>
</defs>
</svg>
