<svg width="24" height="24" viewBox="0 0 24 24" fill="none" xmlns="http://www.w3.org/2000/svg">
<g clip-path="url(#clip0_10566_7432)">
<path d="M5.6495 16.295C7.00747 17.8726 8.7249 18.8012 10.8018 19.0808C10.8018 19.0808 11.3746 19.181 12 19.181C12.6254 19.181 13.1982 19.0808 13.1982 19.0808C15.2751 18.8012 16.9925 17.8726 18.3505 16.295C19.4441 15.0244 20.0974 13.5855 20.3103 11.9782C20.3972 11.3221 19.851 10.7832 19.1893 10.7832C18.5275 10.7832 18.0056 11.3246 17.8826 11.9748C17.6643 13.1285 17.1163 14.1442 16.2387 15.0219C15.0704 16.1901 13.6575 16.7742 12 16.7742C10.3425 16.7742 8.9296 16.1901 7.76134 15.0219C6.88371 14.1442 6.33573 13.1285 6.11741 11.9748C5.99437 11.3246 5.47251 10.7832 4.81076 10.7832C4.149 10.7832 3.60284 11.3221 3.68973 11.9782C3.9026 13.5855 4.55586 15.0244 5.6495 16.295Z" fill="#FFB200"/>
<path d="M12.0001 14.3785C11.0016 14.3785 10.1529 14.029 9.45395 13.3301C8.75499 12.6311 8.40552 11.7824 8.40552 10.7839V3.59462C8.40552 2.59612 8.75499 1.74739 9.45395 1.04843C10.1529 0.349477 11.0016 0 12.0001 0C12.9986 0 13.8474 0.349477 14.5463 1.04843C15.2453 1.74739 15.5948 2.59612 15.5948 3.59462V10.7839C15.5948 11.7824 15.2453 12.6311 14.5463 13.3301C13.8474 14.029 12.9986 14.3785 12.0001 14.3785Z" fill="#497AFF"/>
<rect x="10.7825" y="20.1709" width="2.43525" height="3.82896" rx="1.21762" fill="#ED4D3F"/>
</g>
<defs>
<clipPath id="clip0_10566_7432">
<rect width="24" height="24" fill="white"/>
</clipPath>
</defs>
</svg>
