<svg width="24" height="24" viewBox="0 0 24 24" fill="none" xmlns="http://www.w3.org/2000/svg">
<path d="M20.523 22.093L13.4578 15.0278C12.897 15.4764 12.2522 15.8315 11.5233 16.0932C10.7943 16.3549 10.0186 16.4857 9.19623 16.4857C7.15891 16.4857 5.43466 15.7801 4.02349 14.369C2.61232 12.9578 1.90674 11.2335 1.90674 9.19623C1.90674 7.15891 2.61232 5.43466 4.02349 4.02349C5.43466 2.61232 7.15891 1.90674 9.19623 1.90674C11.2335 1.90674 12.9578 2.61232 14.369 4.02349C15.7801 5.43466 16.4857 7.15891 16.4857 9.19623C16.4857 10.0186 16.3549 10.7943 16.0932 11.5233C15.8315 12.2522 15.4764 12.897 15.0278 13.4578L22.093 20.523L20.523 22.093ZM9.19623 14.2428C10.5981 14.2428 11.7896 13.7522 12.7709 12.7709C13.7522 11.7896 14.2428 10.5981 14.2428 9.19623C14.2428 7.7944 13.7522 6.60285 12.7709 5.62157C11.7896 4.6403 10.5981 4.14966 9.19623 4.14966C7.7944 4.14966 6.60285 4.6403 5.62157 5.62157C4.6403 6.60285 4.14966 7.7944 4.14966 9.19623C4.14966 10.5981 4.6403 11.7896 5.62157 12.7709C6.60285 13.7522 7.7944 14.2428 9.19623 14.2428Z" fill="#497AFF"/>
</svg>
